<svg width="255" height="76" viewBox="0 0 255 76" fill="none" xmlns="http://www.w3.org/2000/svg">
<path d="M0.458252 0.421753V28.318L17.1395 15.4935L0.458252 0.421753Z" fill="#131118"/>
<path d="M0.458252 75.4136L17.1395 60.3453L0.458252 47.5305V75.4136Z" fill="#131118"/>
<path d="M31.7384 34.096L73.709 0.421143H49.2459L0.458252 37.9257L31.7384 34.096Z" fill="#131118"/>
<path d="M0.458252 37.9257L49.2459 75.4157H73.709L31.7384 41.7345L0.458252 37.9257Z" fill="#131118"/>
<path d="M86.8134 3.6561H95.0618V71.5846H86.8134V3.6561ZM121.748 3.6561H131.937L102.534 35.4854L133.393 71.5846H123.204L92.5388 35.6795L121.748 3.6561Z" fill="#131118"/>
<path d="M148.961 26.9459V71.5846H141.198V26.9459H148.961ZM162.45 35.4854C161.415 34.7091 160.477 34.1592 159.636 33.8358C158.795 33.4476 157.727 33.2535 156.433 33.2535C154.492 33.2535 152.972 33.7387 151.872 34.7091C150.773 35.6795 149.996 37.0058 149.543 38.6878C149.155 40.3698 148.961 42.2783 148.961 44.4132H145.468C145.468 40.855 146.082 37.7174 147.311 35.0002C148.605 32.2184 150.255 30.0188 152.26 28.4015C154.266 26.7841 156.304 25.9755 158.374 25.9755C159.991 25.9755 161.479 26.2019 162.838 26.6547C164.261 27.0429 165.555 27.8516 166.72 29.0808L162.45 35.4854Z" fill="#131118"/>
<path d="M174.461 8.50814C174.461 7.02018 174.978 5.75865 176.013 4.72355C177.113 3.68845 178.375 3.1709 179.798 3.1709C181.286 3.1709 182.548 3.68845 183.583 4.72355C184.618 5.75865 185.135 7.02018 185.135 8.50814C185.135 9.9314 184.618 11.1929 183.583 12.2927C182.548 13.3278 181.286 13.8454 179.798 13.8454C178.375 13.8454 177.113 13.3278 176.013 12.2927C174.978 11.1929 174.461 9.9314 174.461 8.50814ZM175.916 26.9459H183.68V71.5846H175.916V26.9459Z" fill="#131118"/>
<path d="M201.512 57.9018C202.418 59.2604 203.453 60.5219 204.618 61.6864C205.782 62.8509 207.108 63.789 208.596 64.5006C210.149 65.1476 211.831 65.471 213.642 65.471C215.842 65.471 217.556 64.9858 218.786 64.0154C220.08 62.9803 220.726 61.5894 220.726 59.8427C220.726 58.29 220.209 56.9961 219.174 55.961C218.203 54.8612 216.942 53.9555 215.389 53.2439C213.837 52.4676 212.187 51.7559 210.44 51.109C208.499 50.3327 206.526 49.427 204.521 48.3919C202.58 47.2921 200.93 45.9011 199.572 44.2191C198.278 42.4724 197.631 40.3051 197.631 37.7174C197.631 35.0649 198.31 32.8653 199.669 31.1186C201.092 29.3719 202.903 28.078 205.103 27.237C207.367 26.396 209.696 25.9755 212.09 25.9755C214.484 25.9755 216.715 26.3636 218.786 27.1399C220.921 27.9163 222.797 28.9514 224.414 30.2452C226.031 31.5391 227.293 33.0271 228.199 34.7091L221.988 38.6878C220.759 37.0058 219.206 35.6148 217.33 34.515C215.519 33.4152 213.448 32.8653 211.119 32.8653C209.502 32.8653 208.111 33.2212 206.947 33.9328C205.782 34.6444 205.2 35.7442 205.2 37.2322C205.2 38.3967 205.653 39.4318 206.559 40.3375C207.464 41.2432 208.629 42.0519 210.052 42.7635C211.475 43.4751 212.963 44.1544 214.516 44.8014C217.104 45.8365 219.465 46.9686 221.6 48.1978C223.735 49.3623 225.417 50.7855 226.646 52.4676C227.94 54.1496 228.587 56.3168 228.587 58.9693C228.587 62.8509 227.164 66.0856 224.317 68.6734C221.535 71.2611 217.848 72.555 213.254 72.555C210.278 72.555 207.594 72.0374 205.2 71.0023C202.806 69.9025 200.768 68.5116 199.086 66.8296C197.469 65.1475 196.24 63.4332 195.399 61.6864L201.512 57.9018Z" fill="#131118"/>
<path d="M232.014 26.9459H254.334V34.2239H232.014V26.9459ZM239.292 11.4194H247.056V71.5846H239.292V11.4194Z" fill="#131118"/>
</svg>
